<!--?xml version="1.0" standalone="no"?-->
              <svg id="sw-js-blob-svg" viewBox="0 0 100 100" xmlns="http://www.w3.org/2000/svg" version="1.1">
                    <defs> 
                        <linearGradient id="sw-gradient" x1="0" x2="1" y1="1" y2="0">
                            <stop id="stop1" stop-color="rgba(248, 117, 55, 1)" offset="0%"></stop>
                            <stop id="stop2" stop-color="rgba(251, 168, 31, 1)" offset="100%"></stop>
                        </linearGradient>
                    </defs>
                <path fill="url(#sw-gradient)" d="M14.6,-19.7C17.8,-14.8,18.4,-9.1,22,-1.9C25.6,5.2,32.1,13.8,30,17.3C27.9,20.8,17.2,19.2,8.3,22.3C-0.6,25.3,-7.7,32.9,-14.5,33.3C-21.2,33.6,-27.7,26.7,-32.2,18.7C-36.7,10.7,-39.1,1.7,-36,-4.6C-32.8,-11,-24.1,-14.6,-17.1,-18.9C-10.2,-23.2,-5.1,-28.3,0.3,-28.6C5.7,-29,11.4,-24.7,14.6,-19.7Z" width="100%" height="100%" transform="translate(50 50)" stroke-width="0" style="transition: all 0.3s ease 0s;"></path>
              </svg>